# xmcd
#
# Track frame offsets:
#	150
#	14173
#	26798
#	37190
#	44271
#	54606
#	70006
#	83969
#	97378
#	109201
#	122223
#	134123
#	149717
#	164441
#	179902
#	191172
#	206424
#	219330
#	234022
#	248146
#	259264
#	272032
#	284556
#
# Disc length: 3992 seconds
#
# Revision: 2
# Processed by: cddbd v1.5.2PL0 Copyright (c) Steve Scherf et al.
# Submitted via: EZCDAudioConverter 1.0.4.1
#
DISCID=7d0f9617
DTITLE=The Pirates - Shakin' at the BBC - Sessions 76-78 CD1
DYEAR=2007
DGENRE=R&B
TTITLE0=Sweet Love On My Mind
TTITLE1=Drinkin' Wine Spo-Dee-O-Dee
TTITLE2=Tear It Up
TTITLE3=Brief Interview
TTITLE4=Castin' My Spell
TTITLE5=Milk Cow Blues
TTITLE6=Put Your Cat Clothes On
TTITLE7=Drinkin' Wine Spo-dee-o-dee
TTITLE8=Let's Talk About Us
TTITLE9=Talkin' About You
TTITLE10=Please Don't Touch (live)
TTITLE11=Sweet Love On My Mind (live)
TTITLE12=Drinkin' Wine Spo-Dee-O-Dee (live)
TTITLE13=Gibson, Martin, Fender (live)
TTITLE14=Honey Hush (live)
TTITLE15=You Don't Own Me (live)
TTITLE16=Shakin' All Over (live)
TTITLE17=Milk Cow Blues (live)
TTITLE18=Lonesome Train (live)
TTITLE19=I Can Tell
TTITLE20=Four To The Bar
TTITLE21=Shakin' All Over
TTITLE22=Gibson, Martin, Fender
EXTD=
EXTT0=
EXTT1=
EXTT2=
EXTT3=
EXTT4=
EXTT5=
EXTT6=
EXTT7=
EXTT8=
EXTT9=
EXTT10=
EXTT11=
EXTT12=
EXTT13=
EXTT14=
EXTT15=
EXTT16=
EXTT17=
EXTT18=
EXTT19=
EXTT20=
EXTT21=
EXTT22=
PLAYORDER=
